<svg version="1.2" xmlns="http://www.w3.org/2000/svg" viewBox="0 0 1883 586" width="1883" height="586">
	<title>lockpicksvg-svg-svg</title>
	<defs>
		<filter x="-50%" y="-50%" width="200%" height="200%" id="f1" ><feDropShadow dx="-1.7320508075688774" dy="0.9999999999999999" stdDeviation="32.083333333333336" flood-color="#000000" flood-opacity=".6"/></filter>
		<filter x="-50%" y="-50%" width="200%" height="200%" id="f2" ><feDropShadow dx="-1.7320508075688774" dy="0.9999999999999999" stdDeviation="32.083333333333336" flood-color="#000000" flood-opacity=".6"/></filter>
	</defs>
	<style>
		.s0 { filter: url(#f1);fill: #ffffff } 
		.s1 { filter: url(#f2);fill: #ffffff } 
	</style>
	<path id="LOCKPICK" fill-rule="evenodd" class="s0" d="m291.1 355.9h-153l0.1-257.3h59.1v198.1l93.8 0.1zm124.7-257.3q26.6 0 50 10.1 23.5 10.2 41 27.7 17.5 17.2 27.6 40.6 10.2 23.5 10.2 50.1 0 26.6-10.2 50-10.1 23.5-27.6 41-17.5 17.1-41 27.3-23.4 10.1-50 10.1-26.7 0-50.1-10.1-23.5-10.2-41-27.3-17.1-17.6-27.3-41-10.1-23.5-10.1-50.1 0-26.6 10.2-50 10.1-23.5 27.3-40.6 17.5-17.5 40.9-27.7 23.5-10.1 50.1-10.1zm0 197.8q14.3 0 26.9-5.3 12.6-5.6 22.1-15 9.4-9.5 14.7-22.1 5.6-12.6 5.6-26.9 0-14.4-5.6-27-5.3-12.6-14.7-22-9.5-9.5-22.1-14.8-12.6-5.6-26.9-5.6-14.4 0-27 5.6-12.6 5.3-22 14.7-9.5 9.5-15.1 22.1-5.2 12.6-5.2 26.9 0 14.4 5.2 27 5.6 12.6 15.1 22.1 9.4 9.4 22 15 12.6 5.3 27 5.3zm257.3 59.2q-24.9 0-48.7-9.2-23.5-9.4-42.4-28.3-18.2-18.6-28-41.7-9.4-23.4-9.4-49.3 0-26.3 9.5-49.4 9.8-23.4 28-41.6 18.9-18.9 42.7-28.4 23.8-9.4 48.3-9.4 24.8 0 48.3 9.4 23.8 9.5 42.7 28.4l-41.7 41.6q-10.1-10.1-23.1-15-12.9-5.3-26.2-5.3-13.3 0-26.3 5.3-12.6 4.9-22.7 15-9.8 10.2-15.1 22.8-5.2 12.6-5.2 26.6 0 14 5.2 26.6 5.3 12.2 15.1 22.4 10.1 10.1 22.7 15.4 13 4.9 26.3 4.9 13.3 0 26.2-4.9 13-5.2 23.1-15.4l41.7 42q-18.9 18.9-42.4 28.4-23.4 9.1-48.6 9.1zm336.4-256.9l-132 128.8 132 128.5-85.5-0.1-82.6-80.8v80.8h-59.1v-257.3h59.2v81.3l82.9-81.2zm173.3 108.5q0 22-8.4 41.6-8.1 19.3-22.8 34-14.3 14.7-33.6 23.4-19.2 8.4-41.3 8.8v40.9h-59.2l0.1-256.9h59.1q22.1 0.4 41.4 9.1 19.2 8.8 33.6 23.5 14.7 14.7 22.7 34.3 8.4 19.2 8.4 41.3zm-106.1-48.7v97.3q9.8-0.3 18.2-4.2 8.8-4.2 15.1-10.5 6.3-6.6 9.8-15.4 3.8-8.7 3.8-18.5 0-9.8-3.8-18.6-3.5-8.7-9.8-15-6.3-6.7-15.1-10.5-8.4-4.2-18.2-4.6zm204.4 197.5h-59.1v-257.3h59.2zm146-0.3q-24.9 0-48.7-9.1-23.5-9.5-42.4-28.4-18.2-18.6-28-41.7-9.4-23.4-9.4-49.3 0-26.3 9.5-49.4 9.8-23.4 28-41.6 18.9-18.9 42.7-28.4 23.8-9.4 48.3-9.4 24.8 0 48.3 9.4 23.8 9.5 42.7 28.4l-41.7 41.6q-10.1-10.1-23.1-15-12.9-5.3-26.2-5.3-13.3 0-26.3 5.3-12.6 4.9-22.7 15-9.8 10.2-15.1 22.8-5.2 12.6-5.2 26.6 0 14 5.2 26.6 5.3 12.2 15.1 22.4 10.1 10.1 22.7 15.4 13 4.9 26.3 4.9 13.3 0 26.2-4.9 13-5.2 23.1-15.4l41.7 42q-18.9 18.9-42.4 28.4-23.4 9.1-48.6 9.1zm336.4-256.9l-132 128.8 132 128.5-85.4-0.1-82.6-80.8-0.1 80.8h-59.1v-257.3h59.2v81.3l82.9-81.2z"/>
	<path id="INTERACTIVE STUDIOS" fill-rule="evenodd" class="s1" d="m273.4 385.4h10.5v93.6h-10.6zm106.9-0.3v95.3h-0.5l-64.2-71.3v70h-10.6v-95.3h0.6l64.2 71.3v-70zm79.4 10.7h-27.2v83.2h-10.6l0.1-83.2h-27.3v-10.5h65zm24.8-0.1v29.6h38.5v10.6h-38.5v32.5h44.5v10.6l-55.1-0.1v-93.6h55.1v10.4zm117 83.3l-26.1-36.6h-17.5v36.6h-10.6l-0.1-93.7h27.7c17.4 0 31.6 13.3 31.6 29.9 0 12.1-8.4 22.6-19.7 26l27.8 37.8zm-26.2-45.5c11.1 0 20.3-8.5 20.3-18.6 0-10.8-9.3-19.2-20.3-19.2h-17.5v37.8zm112.6 30.1h-51.1l-6.9 15.4h-11.4l43.3-95.1h1.1l43.4 95.1h-11.5zm-4-9.2l-21.4-48.1-21.5 48.1zm21.6-22.1c0-26.4 21.8-48.3 48.1-48.3 12 0.1 23.7 5.7 32.2 14.2l-6.2 8.3c-6.7-6.9-16.1-11.7-26.4-11.7-18.8 0-37 16.2-37 37.5 0 21.1 18 37.3 37.2 37.3 10.5 0 19.6-5 26.3-11.6l6.1 8.5c-7.8 7.7-18.3 13.8-32.1 13.8-26.1 0-48.2-21.5-48.2-48zm152.6-36.5h-27.1v83.3h-10.6v-83.3h-27.2v-10.4h64.9zm14.3-10.4h10.6v93.7h-10.6zm109.8 0.1l-42.6 95.1h-1.3l-42.5-95.1h11.2l31.9 72.6 31.9-72.6zm23.4 10.4v29.6h38.5v10.6h-38.5v32.5h44.4v10.6h-55v-93.7h55v10.4zm93 66.5l8.1-6c4.2 8.1 13.8 13.4 23.8 13.4 12.2 0 22.2-6.6 22.2-15.8 0-10.6-13.4-15.6-25.4-20.2-11.5-4.4-24.3-10.1-24.3-24.5 0-14.5 12.9-25.2 29.4-25.2 13.9 0 23.3 7.6 26.8 16.9l-7.9 5.3c-3.1-7-10.6-11.8-19-11.8-10.1 0-18.7 6.6-18.7 15 0 9.1 10.3 12.4 22.4 17 14 5.7 27.4 12.2 27.4 27.3-0.1 16.1-15 26.7-33 26.7-15.4-0.1-27.4-8.1-31.8-18.1zm138.1-66.4h-27.2v83.2h-10.6l0.1-83.2h-27.3v-10.5h65zm13.3 46.8v-57.3h10.6v57.2c0 15.8 10.2 27.2 24 27.2 13.9 0 24.1-11.5 24.1-27.2v-57.2h10.7l-0.1 57.3c0 21.8-14.7 37.8-34.7 37.8-19.8 0-34.6-16-34.6-37.8zm163.4-10.4c0 28.6-18.6 46.8-47.8 46.8h-26.1l0.1-93.7 26-0.1c29.2 0 47.8 18.3 47.8 47zm-10.6 0c0-22.2-14.5-36.5-37.2-36.5h-15.5v72.7h15.7c22.5 0 37-14.2 37-36.2zm26.9-46.9h10.5v93.7h-10.5zm26.8 46.9c0-26.5 21.7-48.2 48.1-48.2 26.5 0 48.2 21.7 48.2 48.2 0 26.4-21.7 48-48.2 48-26.4 0-48.1-21.6-48.1-48zm85.6 0c0-20.7-16.8-37.6-37.5-37.6-20.6 0-37.4 16.9-37.4 37.6 0 20.5 16.8 37.3 37.4 37.3 20.6 0 37.5-16.8 37.5-37.3zm21 30.1l8.1-6c4.3 8 13.9 13.4 23.8 13.4 12.3 0 22.3-6.7 22.3-15.9 0-10.5-13.4-15.6-25.4-20.1-11.5-4.5-24.4-10.1-24.4-24.6 0-14.4 13-25.2 29.4-25.2 13.9 0 23.4 7.7 26.9 16.9l-8 5.3c-3-7-10.5-11.8-19-11.8-10 0-18.6 6.7-18.6 15 0 9.1 10.3 12.4 22.3 17.1 14.1 5.7 27.4 12.2 27.4 27.2 0 16.2-14.9 26.7-32.9 26.7-15.4 0-27.4-8-31.9-18z"/>
</svg>